# xmcd
#
# Track frame offsets: 
#        150
#        14215
#        28352
#        44488
#        60922
#        80685
#        97191
#        112439
#        117642
#        142364
#        160650
#
# Disc length: 2294 seconds
#
# Revision: 2
# Processed by: cddbd v1.5.2PL0 Copyright (c) Steve Scherf et al.
# Submitted via: ExactAudioCopyFreeDBPlugin 1.0
#
DISCID=ae08f40b
DTITLE=Omarion - Ollusion
DYEAR=2010
DGENRE=R&B
TTITLE0=Get It In Feat. Gucci Mane
TTITLE1=Last Night (KINKOS)
TTITLE2=Hoodie Feat. Jay Rock
TTITLE3=What Do You Say
TTITLE4=Speeding
TTITLE5=Temptation
TTITLE6=Sweet Hangover
TTITLE7=Thee Interlude Feat. Marques Houston
TTITLE8=Wet
TTITLE9=I Think My Girl Is Bi
TTITLE10=Code Red
EXTD=
EXTT0=
EXTT1=
EXTT2=
EXTT3=
EXTT4=
EXTT5=
EXTT6=
EXTT7=
EXTT8=
EXTT9=
EXTT10=
PLAYORDER=
